# xmcd
#
# Track frame offsets:
#	150
#	18040
#	32170
#	47202
#	63917
#	79640
#	96657
#	111245
#	124882
#	137005
#	154215
#	170090
#	183845
#	199535
#	220935
#	235950
#
# Disc length: 3381 seconds
#
# Revision: 1
# Processed by: cddbd v1.4PL0 Copyright (c) Steve Scherf et al.
# Submitted via: audiograbber 1.82.01
#
DISCID=de0d3310
DTITLE=BlueTales - Radio Songs
DYEAR=2000
DGENRE=Blues
TTITLE0=Born Looser
TTITLE1=Angelina
TTITLE2=In a blue hour
TTITLE3=That`s it
TTITLE4=Tell me why
TTITLE5=When she`s dancing
TTITLE6=Baby don`t you want me (ska-version)
TTITLE7=When Redbeard smiles
TTITLE8=A moviestar she wants to be
TTITLE9=Slippin` and slidin`
TTITLE10=Payback is a bitch
TTITLE11=Do it
TTITLE12=A single shot in one hand
TTITLE13=Mr. Taxman
TTITLE14=Back
TTITLE15=Ein-fart,Aus-fart (bonus)
EXTD=
EXTT0=
EXTT1=
EXTT2=
EXTT3=
EXTT4=
EXTT5=
EXTT6=
EXTT7=
EXTT8=
EXTT9=
EXTT10=
EXTT11=
EXTT12=
EXTT13=
EXTT14=
EXTT15=
PLAYORDER=
